:SAMPLES-PER-SECOND 30
:FULLY-SPECIFIED
:DEGREES
346
root  -7.59115 39.7384 9.58708 -62.7283 -84.2312 61.3147
RightUpLeg  3.28913 17.2837 -2.0644
RightLeg  43.4976 2.10273 1.83559
RightFoot  39.5277 -8.83779 19.0739
RightToes  -5.8209e-011 0 -3.6325e-017
Spine  -18.2288 12.9489 28.5279
Spine1  12.355 12.0634 -14.3386
HEad  10.0114 -27.7861 -6.10682
LeftShoulder1  7.14725 -14.8828 -32.8511
LeftArm  -22.5608 -7.2942 -40.2483
LeftForeArm  52.8032 -72.4955 -30.4055
LeftHand  -0.246645 0.021 5.37786
RightShoulder  5.58189 13.9029 25.9698
RightArm  67.721 47.0883 97.7578
RightForeArm  35.0364 44.3859 8.5465
RightHand  -0.24729 -0.0210522 -5.37781
LeftUpLeg  -7.10362 -4.71118 -7.32517
LeftLeg  32.4721 -64.2917 -30.9123
LeftFoot  5.41151 -0.00542305 -0.18652
LeftToes  -7.45818e-011 -3.37383e-011 1.08613e-011
347
root  -7.60434 39.7347 9.60042 -67.1462 -84.4004 65.7197
RightUpLeg  3.17289 17.3875 -2.24356
RightLeg  43.6246 2.08331 1.8245
RightFoot  39.592 -8.73889 18.8442
RightToes  -5.8209e-011 0 -3.6325e-017
Spine  -18.2954 12.5553 27.9393
Spine1  12.7548 11.5998 -13.6367
HEad  9.45616 -27.0746 -6.01778
LeftShoulder1  7.38223 -15.1671 -33.5125
LeftArm  -21.2624 -5.07267 -40.1339
LeftForeArm  51.7987 -72.5542 -30.7651
LeftHand  -0.246645 0.021 5.37786
RightShoulder  5.62497 13.8459 26.3386
RightArm  66.6105 45.7568 95.6819
RightForeArm  34.8455 44.6901 8.66322
RightHand  -0.24729 -0.0210522 -5.37781
LeftUpLeg  -7.05122 -4.55986 -7.35789
LeftLeg  32.1126 -64.0214 -30.53
LeftFoot  5.33958 -0.0141231 -0.124958
LeftToes  -7.45818e-011 -3.37383e-011 1.08613e-011
348
root  -7.62422 39.7366 9.61801 -72.1789 -84.5639 70.7095
RightUpLeg  3.12585 17.5483 -2.38166
RightLeg  43.6948 2.02854 1.77335
RightFoot  39.646 -8.65186 18.6436
RightToes  -5.8209e-011 0 -3.6325e-017
Spine  -18.2565 12.1576 27.4898
Spine1  13.0513 11.154 -13.09
HEad  9.00304 -26.272 -5.91016
LeftShoulder1  7.58906 -15.4061 -34.1
LeftArm  -20.106 -2.84825 -39.9686
LeftForeArm  50.88 -72.6211 -31.1332
LeftHand  -0.246645 0.021 5.37786
RightShoulder  5.70044 13.8861 26.7112
RightArm  65.5059 44.3662 93.7236
RightForeArm  34.6103 45.0018 8.78695
RightHand  -0.24729 -0.0210522 -5.37781
LeftUpLeg  -6.93345 -4.37211 -7.38553
LeftLeg  31.673 -63.7619 -30.0653
LeftFoot  5.27667 -0.0290299 -0.0207159
LeftToes  -7.45818e-011 -3.37383e-011 1.08613e-011
349
root  -7.64799 39.7368 9.63773 -77.737 -84.6722 76.2034
RightUpLeg  3.12757 17.8185 -2.49854
RightLeg  43.7498 1.97605 1.72334
RightFoot  39.6769 -8.58966 18.5034
RightToes  -5.8209e-011 0 -3.6325e-017
Spine  -18.1563 11.7457 27.109
Spine1  13.3041 10.7314 -12.7319
HEad  8.5323 -25.3658 -5.5607
LeftShoulder1  7.69772 -15.5233 -34.419
LeftArm  -19.0627 -0.726014 -40.0194
LeftForeArm  49.9937 -72.6331 -31.3573
LeftHand  -0.246645 0.021 5.37786
RightShoulder  5.82715 13.9986 27.2425
RightArm  64.4322 42.9637 91.7712
RightForeArm  34.4587 45.361 8.92325
RightHand  -0.24729 -0.0210522 -5.37781
LeftUpLeg  -6.78846 -4.16443 -7.43692
LeftLeg  31.2545 -63.4974 -29.6206
LeftFoot  5.21499 -0.0445052 0.0881609
LeftToes  -7.45818e-011 -3.37383e-011 1.08613e-011
350
root  -7.66868 39.7308 9.65683 -82.9554 -84.6968 81.3702
RightUpLeg  3.10896 18.1205 -2.61669
RightLeg  43.8436 1.93097 1.68314
RightFoot  39.6951 -8.53027 18.3741
RightToes  -5.8209e-011 0 -3.6325e-017
Spine  -18.1028 11.3412 26.6542
Spine1  13.6026 10.3304 -12.4003
HEad  7.96634 -24.5291 -5.05886
LeftShoulder1  7.74966 -15.5924 -34.5421
LeftArm  -18.0834 1.191 -40.3021
LeftForeArm  49.373 -72.6044 -31.418
LeftHand  -0.246645 0.021 5.37786
RightShoulder  5.94511 14.0525 27.8311
RightArm  63.3724 41.5898 89.893
RightForeArm  34.4636 45.7988 9.07879
RightHand  -0.24729 -0.0210522 -5.37781
LeftUpLeg  -6.68839 -4.01066 -7.5143
LeftLeg  30.9365 -63.22 -29.2763
LeftFoot  5.15035 -0.0538614 0.155804
LeftToes  -7.45818e-011 -3.37383e-011 1.08613e-011
